<svg width="223" height="345" viewBox="0 0 223 345" fill="none" xmlns="http://www.w3.org/2000/svg">
<path d="M111.211 333.007C166.05 333.007 210.506 288.551 210.506 233.712C210.506 178.873 166.05 134.417 111.211 134.417C56.3719 134.417 11.9161 178.873 11.9161 233.712C11.9161 288.551 56.3719 333.007 111.211 333.007Z" stroke="#1D1D1B" stroke-width="23" stroke-miterlimit="10"/>
<path d="M141.524 104.572V123.168C141.524 127.306 139.88 131.275 136.954 134.201C134.028 137.128 130.059 138.772 125.921 138.772H96.4586C92.3203 138.772 88.3515 137.128 85.4253 134.201C82.499 131.275 80.8551 127.306 80.8551 123.168V104.572" fill="#AAAAAA"/>
<path d="M141.524 104.572V123.168C141.524 127.306 139.88 131.275 136.954 134.201C134.028 137.128 130.059 138.772 125.921 138.772H96.4586C92.3203 138.772 88.3515 137.128 85.4253 134.201C82.499 131.275 80.8551 127.306 80.8551 123.168V104.572" stroke="#1D1D1B" stroke-width="7" stroke-miterlimit="10"/>
<path d="M150.603 134.474C150.078 127.693 152.901 105.806 165.171 80.2727C172.38 65.6054 184.537 53.9553 199.498 47.3777C213.768 40.1292 206.903 36.1149 199.257 32.7672L146.957 8.93643L134.616 134.942L150.603 134.474Z" fill="#1D1D1B" stroke="#1D1D1B" stroke-width="10" stroke-miterlimit="10"/>
<path d="M96.416 122.43L85.8198 7.68815C85.7064 6.94042 85.7486 6.17731 85.944 5.44668C86.1393 4.71605 86.4835 4.03367 86.955 3.44233C87.4265 2.85099 88.015 2.36345 88.6838 2.01028C89.3526 1.65711 90.0871 1.44594 90.8413 1.39001H101.437C102.856 1.48139 104.182 2.1282 105.127 3.19028C106.073 4.25235 106.561 5.64413 106.487 7.06401V121.835C106.557 123.254 106.068 124.643 105.123 125.705C104.179 126.766 102.855 127.414 101.437 127.509V127.509C100.121 127.433 98.8787 126.872 97.9513 125.934C97.024 124.996 96.477 123.748 96.416 122.43V122.43Z" fill="#1D1D1B" stroke="#1D1D1B" stroke-width="2" stroke-miterlimit="10"/>
<path d="M165.951 238.322C165.665 238.348 165.376 238.308 165.108 238.204C164.84 238.101 164.599 237.937 164.405 237.726L152.574 225.314C152.379 225.111 152.14 224.954 151.877 224.854C151.613 224.754 151.33 224.714 151.049 224.738C150.768 224.761 150.495 224.846 150.251 224.987C150.007 225.129 149.798 225.323 149.638 225.555L141.127 238.18C140.952 238.434 140.719 238.643 140.445 238.786C140.172 238.93 139.868 239.005 139.56 239.005C139.251 239.005 138.947 238.93 138.674 238.786C138.401 238.643 138.167 238.434 137.992 238.18L131.694 228.832C131.504 228.55 131.241 228.324 130.933 228.179C130.625 228.034 130.283 227.975 129.944 228.009C129.605 228.042 129.282 228.167 129.008 228.369C128.734 228.571 128.52 228.844 128.389 229.158L123.268 241.017C123.133 241.33 122.916 241.601 122.641 241.801C122.365 242.002 122.04 242.124 121.701 242.156C121.362 242.188 121.02 242.128 120.712 241.982C120.403 241.837 120.14 241.611 119.949 241.329L118.842 239.669H118.616L118.701 239.457L112.473 229.527C112.306 229.254 112.071 229.029 111.792 228.873C111.513 228.716 111.198 228.634 110.878 228.634C110.557 228.634 110.243 228.716 109.963 228.873C109.684 229.029 109.449 229.254 109.282 229.527L103.423 238.832V238.988H103.409L101.82 241.357C101.627 241.636 101.364 241.857 101.056 241.999C100.749 242.141 100.409 242.199 100.072 242.165C99.7351 242.132 99.4131 242.009 99.1394 241.81C98.8657 241.611 98.6503 241.342 98.5154 241.031L93.4797 229.215C93.3484 228.901 93.1344 228.628 92.8606 228.426C92.5868 228.223 92.2634 228.099 91.9245 228.065C91.5857 228.032 91.2442 228.091 90.9361 228.236C90.628 228.381 90.3649 228.606 90.1746 228.889L84.3588 237.485C84.1842 237.739 83.9502 237.948 83.6771 238.091C83.404 238.235 83.1 238.31 82.7913 238.31C82.4827 238.31 82.1787 238.235 81.9056 238.091C81.6325 237.948 81.3985 237.739 81.2239 237.485L72.7129 224.832C72.5459 224.589 72.3246 224.389 72.0668 224.246C71.8089 224.103 71.5214 224.023 71.227 224.01C70.9326 223.998 70.6393 224.054 70.3704 224.175C70.1014 224.295 69.8642 224.476 69.6773 224.704L58.7691 238.237C58.5976 238.45 58.3821 238.624 58.1373 238.746C57.8925 238.869 57.6241 238.937 57.3506 238.946H56.7264C56.3708 238.94 56.0242 238.833 55.7265 238.639C55.4288 238.444 55.1922 238.169 55.0439 237.846C54.8957 237.523 54.8418 237.164 54.8885 236.812C54.9352 236.459 55.0806 236.127 55.3079 235.854L70.1171 217.867C70.3035 217.64 70.5404 217.46 70.8089 217.34C71.0773 217.221 71.3699 217.166 71.6633 217.18C71.9568 217.194 72.2429 217.276 72.499 217.42C72.7551 217.564 72.9741 217.765 73.1385 218.009L81.2523 230.066C81.4247 230.324 81.658 230.535 81.9313 230.68C82.2047 230.826 82.5098 230.903 82.8197 230.903C83.1296 230.903 83.4347 230.826 83.7081 230.68C83.9815 230.535 84.2147 230.324 84.3871 230.066L90.2172 221.371L90.1321 221.186H90.3307L91.9052 218.846C92.0943 218.563 92.3564 218.337 92.6637 218.191C92.971 218.044 93.3121 217.984 93.6508 218.016C93.9895 218.048 94.3133 218.171 94.5878 218.372C94.8624 218.573 95.0774 218.845 95.2103 219.158L100.218 231.031C100.349 231.345 100.563 231.618 100.837 231.82C101.11 232.022 101.434 232.147 101.773 232.18C102.112 232.214 102.453 232.155 102.761 232.01C103.069 231.865 103.332 231.639 103.523 231.357L109.381 222.662C109.554 222.404 109.787 222.193 110.06 222.047C110.334 221.901 110.639 221.825 110.949 221.825C111.258 221.825 111.564 221.901 111.837 222.047C112.11 222.193 112.344 222.404 112.516 222.662L118.772 231.896C118.965 232.174 119.228 232.396 119.536 232.538C119.843 232.68 120.183 232.737 120.52 232.704C120.857 232.671 121.179 232.548 121.453 232.349C121.726 232.149 121.942 231.88 122.077 231.57L127.013 219.839C127.144 219.525 127.358 219.252 127.632 219.05C127.906 218.847 128.229 218.723 128.568 218.689C128.907 218.656 129.249 218.715 129.557 218.86C129.865 219.005 130.128 219.23 130.318 219.512L131.453 221.186H131.666L131.581 221.385L137.893 230.761C138.068 231.016 138.301 231.224 138.575 231.368C138.848 231.512 139.152 231.587 139.46 231.587C139.769 231.587 140.073 231.512 140.346 231.368C140.619 231.224 140.853 231.016 141.028 230.761L149.142 218.633C149.303 218.395 149.516 218.197 149.765 218.053C150.014 217.91 150.293 217.824 150.579 217.804C150.866 217.783 151.154 217.828 151.421 217.935C151.688 218.042 151.927 218.208 152.12 218.42L167.128 235.159C167.367 235.415 167.53 235.732 167.599 236.076C167.668 236.42 167.639 236.776 167.517 237.104C167.395 237.432 167.184 237.72 166.907 237.935C166.63 238.151 166.299 238.284 165.951 238.322V238.322Z" fill="#1D1D1B" stroke="#1D1D1B" stroke-width="2" stroke-miterlimit="10"/>
<path d="M122.148 122.43L132.744 7.68815C132.859 6.94012 132.819 6.17623 132.624 5.44472C132.43 4.71321 132.086 4.02997 131.614 3.43814C131.142 2.84631 130.553 2.35874 129.883 2.00621C129.213 1.65369 128.477 1.44388 127.722 1.39001H117.126C115.709 1.48498 114.385 2.13284 113.441 3.19408C112.496 4.25533 112.006 5.64506 112.076 7.06401V121.835C112.006 123.254 112.496 124.643 113.441 125.705C114.385 126.766 115.709 127.414 117.126 127.509V127.509C118.444 127.436 119.688 126.876 120.616 125.938C121.544 124.999 122.09 123.749 122.148 122.43V122.43Z" fill="#1D1D1B" stroke="#1D1D1B" stroke-width="2" stroke-miterlimit="10"/>
<path d="M67.7056 134.091C68.2305 127.324 65.4077 105.437 53.1376 79.8188C45.9309 65.1531 33.7722 53.5069 18.81 46.938C4.53989 39.6894 11.4054 35.6609 19.0511 32.3133L71.3512 8.55341L83.7346 134.559L67.7056 134.091Z" fill="#1D1D1B" stroke="#1D1D1B" stroke-width="10" stroke-miterlimit="10"/>
</svg>
